<?xml version="1.0" standalone="no"?>
<!DOCTYPE svg PUBLIC "-//W3C//DTD SVG 20010904//EN"
 "http://www.w3.org/TR/2001/REC-SVG-20010904/DTD/svg10.dtd">
<svg version="1.0" xmlns="http://www.w3.org/2000/svg"
 width="512.000000pt" height="512.000000pt" viewBox="0 0 512.000000 512.000000"
 preserveAspectRatio="xMidYMid meet">
<metadata>
Created by potrace 1.14, written by Peter Selinger 2001-2017
</metadata>
<g transform="translate(0.000000,512.000000) scale(0.100000,-0.100000)"
fill="#000000" stroke="none">
<path d="M393 5106 c-183 -45 -344 -210 -382 -394 -16 -75 -16 -4229 0 -4304
39 -189 208 -358 397 -397 75 -16 4229 -16 4304 0 189 39 358 208 397 397 16
75 16 4229 0 4304 -39 189 -208 358 -397 397 -81 17 -4248 14 -4319 -3z m3519
-713 c58 -34 63 -58 44 -212 -64 -517 -124 -1122 -151 -1531 -18 -286 -36
-712 -30 -718 2 -2 89 37 192 88 103 51 201 96 217 101 48 14 89 -10 120 -72
30 -61 32 -88 11 -129 -17 -33 -68 -59 -365 -191 l-175 -77 -5 -375 c-5 -348
-6 -376 -24 -396 -25 -28 -80 -44 -149 -44 -49 0 -62 4 -84 25 -24 24 -25 32
-33 194 -5 93 -13 198 -20 234 -16 91 -51 220 -60 220 -4 0 -33 -9 -64 -20
-87 -30 -288 -78 -401 -96 -160 -25 -518 -30 -666 -9 -102 14 -123 15 -133 3
-7 -7 -49 -56 -93 -108 -102 -120 -251 -263 -326 -314 -156 -103 -336 -150
-488 -128 -137 20 -270 85 -371 182 -49 48 -58 61 -58 91 0 42 42 111 86 140
44 29 76 24 130 -21 27 -23 82 -57 122 -77 209 -104 437 -20 669 248 43 50 79
93 80 97 1 4 -20 22 -48 41 -203 138 -268 407 -151 625 45 85 153 185 259 239
141 73 253 99 457 106 l169 6 152 260 c185 317 443 779 680 1220 97 182 192
345 209 363 18 18 50 40 72 48 54 20 182 13 226 -13z"/>
<path d="M3500 3627 c-161 -301 -431 -786 -559 -1006 -55 -96 -101 -175 -101
-176 0 -1 19 -8 43 -15 179 -53 424 -248 550 -435 l47 -70 0 51 c0 263 58
1031 121 1603 16 150 29 275 27 276 -2 2 -59 -101 -128 -228z"/>
<path d="M2280 2240 c-161 -22 -269 -83 -323 -185 -45 -84 -22 -211 50 -276
62 -56 52 -61 150 83 116 170 243 369 243 380 0 9 -41 9 -120 -2z"/>
<path d="M2676 2178 c-11 -18 -93 -145 -183 -282 -90 -137 -161 -251 -158
-255 4 -3 118 -6 253 -6 183 1 274 5 351 18 105 17 333 72 358 85 9 6 2 24
-32 74 -91 136 -214 247 -350 316 -60 30 -196 82 -215 82 -3 0 -14 -15 -24
-32z"/>
</g>
</svg>
